<?xml version="1.0" standalone="no"?>
<!DOCTYPE svg PUBLIC "-//W3C//DTD SVG 20010904//EN"
 "http://www.w3.org/TR/2001/REC-SVG-20010904/DTD/svg10.dtd">
<svg version="1.0" xmlns="http://www.w3.org/2000/svg"
 width="205.000000pt" height="246.000000pt" viewBox="0 0 205.000000 246.000000"
 preserveAspectRatio="xMidYMid meet">
<metadata>
Created by potrace 1.16, written by Peter Selinger 2001-2019
</metadata>
<g transform="translate(0.000000,246.000000) scale(0.100000,-0.100000)"
fill="#000000" stroke="none">
<path d="M1227 2252 l-107 -107 42 -43 43 -42 -100 0 c-218 0 -393 -42 -552
-131 -112 -63 -272 -224 -336 -339 -161 -289 -161 -631 0 -920 67 -119 224
-276 343 -343 361 -202 804 -150 1098 127 131 124 204 239 255 401 20 63 47
217 47 268 0 4 -69 7 -154 7 l-154 0 -11 -75 c-37 -250 -200 -443 -436 -518
-99 -31 -261 -31 -360 0 -187 59 -342 207 -405 386 -62 175 -43 365 52 526 44
73 140 167 219 214 106 62 173 79 342 85 81 2 147 1 147 -4 0 -4 -18 -27 -40
-49 l-40 -41 108 -106 107 -107 233 231 234 231 -228 228 c-126 126 -231 229
-234 229 -3 0 -54 -48 -113 -108z"/>
</g>
</svg>
