<?xml version="1.0" standalone="no"?>
<!DOCTYPE svg PUBLIC "-//W3C//DTD SVG 20010904//EN"
 "http://www.w3.org/TR/2001/REC-SVG-20010904/DTD/svg10.dtd">
<svg version="1.0" xmlns="http://www.w3.org/2000/svg"
 width="225.000000pt" height="225.000000pt" viewBox="0 0 225.000000 225.000000"
 preserveAspectRatio="xMidYMid meet">
<metadata>
Created by potrace 1.16, written by Peter Selinger 2001-2019
</metadata>
<g transform="translate(0.000000,225.000000) scale(0.100000,-0.100000)"
fill="#000000" stroke="none">
<path d="M473 1970 c-58 -12 -94 -33 -135 -78 -65 -72 -63 -51 -63 -767 0
-736 -3 -708 79 -783 75 -69 49 -67 771 -67 736 0 708 -3 783 79 69 75 67 49
67 771 0 525 -3 657 -14 689 -18 53 -77 115 -131 140 -44 21 -59 21 -680 23
-349 1 -654 -3 -677 -7z m1315 -120 c33 -15 47 -29 62 -62 19 -41 20 -70 20
-663 0 -593 -1 -622 -20 -663 -15 -33 -29 -47 -62 -62 -41 -19 -70 -20 -663
-20 -593 0 -622 1 -663 20 -33 15 -47 29 -62 62 -19 41 -20 70 -20 663 0 593
1 622 20 663 15 33 29 47 62 62 41 19 70 20 663 20 593 0 622 -1 663 -20z"/>
<path d="M887 1562 c-10 -10 -17 -27 -17 -37 0 -11 80 -99 190 -210 l190 -190
-190 -190 c-105 -104 -190 -197 -190 -205 0 -26 30 -60 53 -60 34 0 457 426
457 460 0 19 -49 74 -213 238 -223 223 -242 236 -280 194z"/>
</g>
</svg>
