<?xml version="1.0" standalone="no"?>
<!DOCTYPE svg PUBLIC "-//W3C//DTD SVG 20010904//EN"
 "http://www.w3.org/TR/2001/REC-SVG-20010904/DTD/svg10.dtd">
<svg version="1.0" xmlns="http://www.w3.org/2000/svg"
 width="225.000000pt" height="225.000000pt" viewBox="0 0 225.000000 225.000000"
 preserveAspectRatio="xMidYMid meet">
<metadata>
Created by potrace 1.16, written by Peter Selinger 2001-2019
</metadata>
<g transform="translate(0.000000,225.000000) scale(0.100000,-0.100000)"
fill="#000000" stroke="none">
<path d="M473 1970 c-58 -12 -95 -33 -133 -76 -62 -72 -60 -41 -60 -769 0
-734 -3 -698 65 -773 71 -80 45 -77 790 -77 l660 0 55 31 c61 35 113 106 124
171 8 49 8 1247 0 1296 -11 65 -63 136 -124 171 l-55 31 -640 2 c-352 1 -659
-3 -682 -7z m1334 -126 c65 -48 63 -24 63 -717 0 -691 1 -673 -61 -718 l-34
-24 -645 0 c-598 0 -647 1 -677 18 -65 35 -63 9 -63 722 0 557 2 650 15 675
15 30 39 46 84 61 14 4 310 7 658 6 622 -2 632 -2 660 -23z"/>
<path d="M1083 1367 c-163 -163 -213 -218 -213 -237 0 -33 424 -460 456 -460
25 0 54 30 54 56 0 12 -73 92 -185 204 -102 102 -185 189 -185 195 0 6 83 93
185 195 144 144 185 191 185 210 0 34 -17 50 -54 50 -26 0 -60 -30 -243 -213z"/>
</g>
</svg>
