<?xml version="1.0" standalone="no"?>
<!DOCTYPE svg PUBLIC "-//W3C//DTD SVG 20010904//EN"
 "http://www.w3.org/TR/2001/REC-SVG-20010904/DTD/svg10.dtd">
<svg version="1.0" xmlns="http://www.w3.org/2000/svg"
 width="512.000000pt" height="512.000000pt" viewBox="0 0 512.000000 512.000000"
 preserveAspectRatio="xMidYMid meet">
<metadata>
Created by potrace 1.16, written by Peter Selinger 2001-2019
</metadata>
<g transform="translate(0.000000,512.000000) scale(0.100000,-0.100000)"
fill="#000000" stroke="none">
<path d="M2345 4650 c-423 -49 -813 -212 -1120 -470 -97 -81 -245 -231 -316
-320 -126 -157 -250 -377 -323 -573 -146 -389 -169 -847 -65 -1254 176 -689
697 -1249 1369 -1474 910 -304 1907 43 2433 846 225 345 339 730 339 1150 0
638 -268 1206 -766 1625 -276 231 -615 386 -991 451 -137 23 -431 33 -560 19z
m474 -225 c403 -57 755 -233 1048 -522 501 -496 677 -1229 457 -1901 -194
-594 -697 -1063 -1302 -1217 -294 -74 -638 -73 -939 4 -447 114 -852 417
-1105 824 -328 527 -366 1204 -99 1762 231 484 650 843 1157 993 85 26 156 40
324 65 68 11 365 5 459 -8z"/>
<path d="M2508 3954 c-59 -32 -58 -19 -58 -664 l0 -590 -592 0 c-570 0 -594
-1 -625 -20 -22 -13 -36 -32 -44 -61 -11 -37 -11 -46 7 -77 10 -20 30 -42 44
-49 19 -10 161 -13 618 -13 l592 0 0 -597 c0 -580 1 -599 20 -631 36 -59 119
-67 169 -17 l26 25 3 610 2 610 604 2 604 3 26 24 c51 48 42 135 -18 172 -29
18 -61 19 -623 19 l-593 0 0 589 c0 359 -4 600 -10 615 -11 31 -65 66 -100 66
-14 -1 -37 -7 -52 -16z"/>
</g>
</svg>
